<?xml version="1.0" encoding="utf-8"?>
<!-- Generator: Adobe Illustrator 27.5.0, SVG Export Plug-In . SVG Version: 6.00 Build 0)  -->
<svg version="1.1" xmlns="http://www.w3.org/2000/svg" xmlns:xlink="http://www.w3.org/1999/xlink" x="0px" y="0px"
	 viewBox="0 0 600 220" style="enable-background:new 0 0 600 220;" xml:space="preserve">
<g id="Background">
	<rect style="fill:#A5C0F7;" width="600" height="220"/>
</g>
<g id="Illustration">
	<g>
		<path style="opacity:0.49;fill:#A5C0F7;" d="M600,38.32v38.33c-7.8,0.32-14.86,0.84-18.58,2.27c-0.66,0.25-2.79,1.15-6.39,2.33
			c-2.53,0.81-5.42,1.66-8.82,2.55c-0.66,0.09-1.31,0.16-2.02,0.25c-48.46,5.95-153.38,16.87-293.78,16.33
			c-94.02-0.37-170.3-5.77-222.31-10.77c-16.37-1.58-30.25-3.11-41.61-4.44c0.2-0.29,0.05-0.5-0.15-0.63
			C5.63,84.03,3.33,83.81,0,83.8V55.24c1.67-0.88,3.41-1.73,5.22-2.55c31.66-14.37,46.35-2.52,90.02-6.17
			c54.02-4.52,76.52-18.29,111.21-8.91c5.77,1.56,7.55,3.83,8.16,5.57c14.54-2.23,31.52-4.14,39.79-2.1
			c4.71,1.17,3.39,2.83,7.5,3.68c9.93,2.06,33.8-4.35,51.65-7.81c47.49-9.16,118.6-10.08,141.21-2.15c7.71,2.72,4.73,4.73,5.61,7.5
			c0,0,0.7,2.14,3.81,3.78c16.7,8.81,97.88-5.28,97.88-5.28C576.35,38.32,588.71,36.5,600,38.32z"/>
		<path style="opacity:0.49;fill:#A5C0F7;" d="M593.771,71.514c-28.48,3.305-56.96,6.61-85.439,9.915
			c-5.4,0.222-10.288,0.582-12.864,1.572c-0.457,0.173-1.932,0.796-4.424,1.613c-1.752,0.561-3.753,1.149-6.107,1.765
			c-0.457,0.062-0.907,0.111-1.398,0.173c-33.552,4.12-106.193,11.68-203.4,11.306c-65.095-0.256-117.908-3.995-153.917-7.457
			c-11.334-1.094-20.944-2.153-28.809-3.074c0.138-0.201,0.035-0.346-0.104-0.436c-0.492-0.353-2.084-0.505-4.39-0.512
			c-26.923-3.395-53.847-6.79-80.77-10.185c2.303-9.044,6.377-13.055,9.255-15.032c16.529-11.356,40.26,12.326,75.129,3.678
			c6.428-1.594,5.498-2.879,13.324-4.279c14.162-2.532,25.542,1.968,49.002,0.007c37.401-3.129,52.979-12.663,76.997-6.169
			c3.995,1.08,5.227,2.652,5.65,3.856c10.067-1.544,21.823-2.866,27.549-1.454c3.261,0.81,2.347,1.959,5.193,2.548
			c6.875,1.426,23.402-3.012,35.76-5.407c32.88-6.342,82.113-6.979,97.767-1.489c5.338,1.883,3.275,3.275,3.884,5.193
			c0,0,0.485,1.482,2.638,2.617c11.562,6.1,67.768-3.656,67.768-3.656c4.477-0.82,9.116-1.49,13.913-1.975
			C534.935,50.692,568.85,60.499,593.771,71.514z"/>
		<path style="fill:#3578A4;" d="M600,80.955v119.444c-89.8-9.529-180.37,5.268-270.51,2.309c-3.23-0.102-8.77-0.268-16.11-0.472
			c-16.08-0.472-40.8-1.173-68.77-2.015c-52.23-1.594-115.8-3.686-155.6-5.689c-19.37-0.982-33.12-1.939-37.18-2.806
			c-0.02,0-0.15-0.025-0.32-0.064c-9.77-2.054-16.66-1.569-28.61-1.02c-0.06,0.013-0.12,0.013-0.18,0.013
			c-11.35,0.51-16.26,0.574-22.72-1.697V74.386c22.9,0.778,45.93,1.505,69.11,2.169c0.03-0.013,0.07-0.013,0.1,0
			c7.53,0.217,15.08,0.421,22.64,0.625c11.49,0.306,23.01,0.6,34.56,0.893c0.01-0.013,0.03-0.013,0.05,0
			c110.64,2.679,224.32,4.031,340.91,3.814C512.08,81.784,556.27,81.478,600,80.955z"/>
		<path style="fill:#B0BF5A;" d="M600,64.908v16.366c-116.39,1.199-227.47,14.172-228.8,9.707c-0.37-1.314,9.7-2.296,9.4-3.737
			c-1.23-5.523-151.65,2.475-332.67,0.931c-1.66,0-8.93-0.089-19.74-0.217C20.34,87.843,10.66,87.703,0,87.511V71.197
			c42.41-0.931,71.94,0.153,78.11,0.357c92.26,3.304,67.5-3.431,299.85-3.98c136.91-0.319,110.51,2.105,138.4,0.612
			C533.82,67.255,565.46,65.176,600,64.908z"/>
		<path style="fill:#CBD477;" d="M600,64.908v11.926c-35.28,1.352-81.98,2.066-131.5-0.867c-16.25-0.957-27.74-2.028-47.64-2.015
			c-49.76-0.064-93,6.493-93.62,5.013c-0.32-0.753,10.93-2.258,10.58-3.814c-0.46-2.207-23.63-2.462-28.33-2.513
			c-79.23-0.778-171.36,4.732-171.36,4.732c-4.03,0.242-7.92,0.472-11.67,0.702c-0.02-0.013-0.04-0.013-0.05,0
			c-50.21,2.934-76.29,3.98-76.38,3.597c0-0.497,41.29-3.1,41.82-4.49c-0.08-0.638-8.91-0.663-22.64-0.625
			c-0.03-0.013-0.07-0.013-0.1,0c-9.57,0.013-21.5,0.051-34.49-0.051C23.38,76.414,11.44,76.21,0,75.929v-4.732
			c55.859-6.292,84.073-7.805,84.637-4.538c0.166,0.959-2.053,2.331-6.658,4.115c16.756-0.194,33.512-0.387,50.268-0.581
			c16.95-3.903,38.092-6.395,61.909-3.651c4.837,0.557,9.469,1.294,13.889,2.165c91.091-0.53,142.878-0.891,173.914-1.132
			c77.32-0.6,95.981-0.995,108.446,0.703c1.751,0.239,8.321,1.191,16.947,0.398c14.506-1.335,24.748-6.681,27.666-8.06
			C541.784,55.526,561.359,53.158,600,64.908z"/>
		<path style="fill:#E3F3FC;" d="M440.676,21.586c0.361-1.029-3.153-1.779-9.181-1.779c-0.516,0-1.042,0.018-1.565,0.029
			c-0.235-1.65-7.566-2.835-19.061-2.835c-1.66,0-3.335,0.028-5.006,0.075c-2.028-1.693-9.324-2.818-20.271-2.818
			c-12.05,0-25.243,1.363-34.377,3.347c-0.627-0.014-1.214-0.039-1.888-0.039c-8.096,0-17.006,1.023-22.478,2.444
			c-1.356-0.13-2.991-0.202-4.864-0.202c-7.461,0-15.841,1.142-18.716,2.551c-2.875,1.409,0.843,2.551,8.305,2.551
			c4.213,0,8.688-0.372,12.331-0.942c2.112,0.58,5.672,0.942,10.437,0.942c2.663,0,5.416-0.114,8.112-0.312
			c3.305,1.126,9.675,1.827,18.312,1.827c7.4,0,15.237-0.514,22.3-1.369c2.904,0.266,6.437,0.419,10.514,0.419
			c6.931,0,14.102-0.433,20.241-1.136c1.598,0.352,4.056,0.572,7.263,0.572c3.858,0,7.948-0.309,11.409-0.799
			c0.673,0.06,1.464,0.095,2.373,0.095c3.842,0,8.157-0.588,9.638-1.313C445.922,22.195,444.202,21.632,440.676,21.586z"/>
		<path style="fill:#E3F3FC;" d="M338.636,40.463c0.275-1.089-2.4-1.882-6.988-1.882c-0.393,0-0.794,0.019-1.192,0.03
			c-0.179-1.745-5.759-2.998-14.508-2.998c-1.263,0-2.538,0.029-3.81,0.079c-1.544-1.79-7.097-2.981-15.43-2.981
			c-9.172,0-19.214,1.442-26.167,3.54c-0.478-0.015-0.924-0.041-1.437-0.041c-6.162,0-12.944,1.082-17.11,2.585
			c-1.032-0.138-2.277-0.214-3.703-0.214c-5.679,0-12.058,1.208-14.246,2.698c-2.188,1.49,0.642,2.698,6.321,2.698
			c3.207,0,6.613-0.393,9.385-0.997c1.608,0.613,4.317,0.997,7.944,0.997c2.027,0,4.123-0.121,6.174-0.33
			c2.516,1.191,7.364,1.932,13.939,1.932c5.633,0,11.598-0.544,16.974-1.448c2.21,0.281,4.9,0.443,8.003,0.443
			c5.275,0,10.734-0.458,15.407-1.202c1.216,0.373,3.087,0.605,5.528,0.605c2.937,0,6.05-0.327,8.684-0.845
			c0.513,0.063,1.115,0.1,1.806,0.1c2.924,0,6.209-0.622,7.336-1.389C342.63,41.107,341.32,40.511,338.636,40.463z"/>
		<path style="fill:#E3F3FC;" d="M131.336,23.258c0.275-1.088-2.4-1.882-6.988-1.882c-0.393,0-0.793,0.019-1.191,0.03
			c-0.179-1.745-5.759-2.998-14.508-2.998c-1.263,0-2.538,0.029-3.81,0.079c-1.544-1.79-7.097-2.981-15.429-2.981
			c-9.172,0-19.214,1.442-26.167,3.54c-0.478-0.015-0.924-0.041-1.437-0.041c-6.162,0-12.944,1.082-17.11,2.585
			c-1.032-0.138-2.277-0.214-3.703-0.214c-5.679,0-12.058,1.208-14.246,2.698s0.642,2.698,6.321,2.698
			c3.207,0,6.613-0.393,9.385-0.997c1.608,0.613,4.317,0.997,7.944,0.997c2.027,0,4.123-0.12,6.174-0.33
			c2.516,1.191,7.364,1.932,13.939,1.932c5.633,0,11.598-0.544,16.974-1.448c2.21,0.281,4.9,0.443,8.003,0.443
			c5.275,0,10.734-0.458,15.407-1.202c1.216,0.373,3.087,0.605,5.528,0.605c2.937,0,6.049-0.327,8.684-0.845
			c0.513,0.063,1.115,0.1,1.806,0.1c2.924,0,6.209-0.622,7.336-1.389C135.329,23.902,134.02,23.307,131.336,23.258z"/>
		<path style="opacity:0.45;fill:#6EBABA;" d="M600,123.87v42.54c-7.4,2.06-14.65,3.73-21.77,5.09
			c-20.93,3.99-40.74,5.22-60.09,5.15c-54.44-0.19-105.22-10.64-166.79,1.39c-5.31,1.04-15.53,3.18-29.53,4.77
			c-2.68,0.3-5.49,0.58-8.44,0.83c-4.44,0.37-9.19,0.67-14.2,0.87c-22.02,0.82-40.51-0.87-54.57-2.89
			c-9.65-1.39-17.21-2.92-22.4-3.89c-56.07-10.52-92.41-3.54-133.2-1.8c-18.98,0.83-38.92,0.5-62.28-3.26
			c-1.27-0.19-2.54-0.41-3.83-0.63c-7.28-1.25-14.89-2.84-22.9-4.86v-42.56c39.009-8.984,72.696-13.902,98.853-16.751
			c65.412-7.125,106.243-3.766,117.578,0.14c1.647,0.568,6.795,2.568,13.864,2.635c6.794,0.064,8.601-1.722,16.699-2.586
			c10.652-1.137,9.762,1.714,18.235,0.364c9.387-1.495,14.084-5.569,20.064-2.903c0.967,0.431,0.781,0.378,4.823,2.028
			c1.747,0.713,6.115,2.49,10.921,4.15c8.196,2.832,11.395,3.158,11.343,3.903c-0.123,1.763-18.084,0.499-18.692,3.878
			c-0.269,1.493,2.913,3.539,5.492,4.402c3.393,1.135,6.364,0.216,7.747,0.175c14.557-0.434,17.693,4.667,37.097,4.191
			c0.075-0.002,0.135-0.003,0.226-0.006c20.773-0.568,26.23-9.408,34.842-5.864c3.472,1.429,3.711,3.33,7.486,3.963
			c5.487,0.921,10.175-2.221,11.532-3.069c14.159-8.849,53.514-10.285,54.74-5.85c1.009,3.65-23.507,12.381-22.46,15.45
			c0.655,1.92,10.421-0.993,26.619-0.336c8.829,0.358,14.966,1.591,17.202,1.952C485.965,136.384,518.486,134.968,600,123.87z"/>
		<path style="opacity:0.35;fill:#E3F3FC;" d="M600,134.27v32.14c-7.4,2.06-14.65,3.73-21.77,5.09
			c-15.17,2.11-34.95,3.75-60.09,5.15c-30.03,1.67-67.7,3.01-114.29,4.41c-26.84,0.8-56.26,1.62-82.03,1.75
			c-39.42,0.17-70.31-1.27-70.44-6.88c-0.12-5.13,15.1-7.68,14.49-11.24c-1.24-7.1-62.51-1.8-92.01,0.4
			c-69.4,5.18-116.18,7.26-147.13,7.58c-1.27-0.19-2.54-0.41-3.83-0.63c-7.28-1.25-14.89-2.84-22.9-4.86V147.1
			c1.68,0.21,3.21,0.39,4.51,0.54c40.22,4.59,42.38-4.91,76.51,0.33c10.81,1.66,20.63,4.16,37.33,4.19
			c7.86,0.01,13.25-0.74,20.55-1.17c9.8-0.57,24.23-1.51,50.82-3.51c41.8-3.15,66.13,2.95,111.05,2.38
			c3.89-0.05,8.44-0.14,13.92-0.4c21.29-1,36.61-3.42,40.29-3.96c41.78-6.15,123.33,3.92,183.3-2.65
			c13.24-1.45,26.71-1.18,39.75-3.87C587.09,137.11,594.19,134.93,600,134.27z"/>
		<path style="fill:#91A252;" d="M600,155.848V220H0v-58.803c15.46-2.362,40.36-3.741,88.56-3.651
			c74.89,0.128,107.6,3.6,192.77,0.191c0.16-0.013,29.82-1.634,71.6-3.255C430.64,151.456,550.26,148.468,600,155.848z"/>
		<path style="fill:#6F7F4E;" d="M600,178.23V220H0v-37.28c3.27-0.46,6.58-0.64,9.85-0.65c8.63-0.03,17.23,1.09,25.83,2
			c0.96,0.11,1.92,0.21,2.88,0.31c4.9,0.53,32.3,3.1,56.19,1.12c1.11-0.1,2.22-0.2,3.31-0.31c0.61-0.06,1.21-0.13,1.8-0.2
			c2.13-0.24,4.19-0.52,6.17-0.84c1.69-0.26,3.33-0.55,4.92-0.86c0.69-0.13,1.37-0.26,2.04-0.4c1.76-0.36,3.45-0.75,5.09-1.15
			c1.91-0.47,3.74-0.95,5.5-1.45c1.78-0.51,3.5-1.03,5.14-1.56c7.88-2.51,14.28-5.13,20.03-6.88c1.48-0.44,2.91-0.83,4.31-1.15
			c3.36-0.76,6.55-1.1,9.76-0.8c1.2,0.12,2.4,0.32,3.62,0.63c1.92,0.49,3.88,1.23,5.9,2.27c5.9,3.04,6.69,5.71,13.21,7.48
			c16.31,4.46,29.05-7.41,38.98-0.21c3.3,2.39,2.4,4.07,5.61,6.05c9.72,6.02,26.04-4.37,31.78-7.61
			c40.12-22.65,106.63-2.57,106.82,3.54c0.07,2.07-7.51,3.28-7.26,4.4c0.43,1.97,24.37-0.45,47.44-3.31
			c1.12-0.14,2.23-0.28,3.34-0.42c2.24-0.28,4.47-0.57,6.65-0.85c1.12-0.15,2.24-0.3,3.34-0.45c3.14-0.41,6.17-0.82,9-1.21
			c0.99-0.14,1.95-0.27,2.88-0.4c2.44-0.34,4.69-0.67,6.72-0.96c0.27-0.04,0.55-0.08,0.86-0.12c1.46-0.2,3.37-0.44,5.66-0.64
			c1.39-0.13,2.92-0.25,4.58-0.35c1.71-0.1,3.57-0.18,5.55-0.22c0.5-0.01,1.01-0.02,1.53-0.03c1.79-0.02,3.67-0.01,5.64,0.03
			c1.61,0.04,3.28,0.1,5.01,0.2c1.82,0.1,3.69,0.23,5.62,0.41c0.44,0.03,0.88,0.08,1.33,0.12c2.59,0.25,5.23,0.66,8.22,1.27
			c0.3,0.06,0.61,0.12,0.92,0.19c0.17,0.04,0.34,0.07,0.51,0.11c4.73,1.03,8.81,2.22,12.55,3.31c0.27,0.08,0.54,0.15,0.8,0.23
			c7.38,2.13,13.49,3.74,20.69,2.59c0.64-0.11,1.29-0.23,1.95-0.39c1.17-0.25,2.38-0.59,3.63-1.01c0.55-0.18,1.07-0.38,1.57-0.57
			c1.36-0.52,2.58-1.07,3.72-1.6c1.56-0.73,2.99-1.43,4.44-2.01c1.11-0.44,2.24-0.81,3.46-1.06c1.57-0.32,3.29-0.44,5.32-0.27
			c4.62,0.4,7.62,2.13,10.47,3.77c0.53,0.3,1.05,0.59,1.57,0.88c2.7,1.47,5.53,2.61,9.73,2.18c5.64-0.57,10.86-3.9,16.32-5.83
			C588.28,178,594.14,177.55,600,178.23z"/>
		<g>
			<g>
				<path style="fill:#765447;" d="M261.882,113.437c-2.043,0.884-3.739,1.413-4.877,1.732c-2.442,0.681-3.348,0.667-5.956,1.5
					c-2.319,0.739-2.196,0.978-3.558,1.275c-2.761,0.602-4.203,0.058-6.833-0.015c-4.014-0.109-3.964,1.073-8.5,1.326
					c-1.312-0.891-3.674-3.058-7.572-3.674c-4.116-0.616-6.384,1.036-10.326,1.652c-1.065,0.152-2.283,0.239-3.667,0.167
					c-2.761-0.123-6.145-0.862-10.188-2.877c0.384-0.464,0.775-0.928,1.174-1.399c0.406-0.478,0.819-0.971,1.239-1.464
					c1.188-1.427,2.42-2.862,3.456-4.094c19.275-22.826,22.333-26.253,27.115-26.152c5.072,0.073,11.877,4.094,14.442,8.601
					c0.493,0.891,1.58,3.08,3.869,5.5c2,2.094,3.703,3.101,4.609,3.768c1.978,1.456,4.094,4.239,5.109,10.13
					C261.614,110.625,261.788,111.959,261.882,113.437z"/>
				<path style="opacity:0.31;fill:#542B2E;" d="M261.882,113.437c-2.043,0.884-3.739,1.413-4.877,1.732
					c-2.442,0.681-3.348,0.667-5.956,1.5c-2.319,0.739-2.196,0.978-3.558,1.275c-2.761,0.602-4.203,0.058-6.833-0.015
					c-4.014-0.109-3.964,1.073-8.5,1.326c-1.094,0.058-2.043,0.044-8.413-0.754c-9-1.13-7.869-1.246-9.485-1.268
					c-1.37-0.022-2.58,0.058-3.667,0.167c-3.877,0.391-6.166,1.196-8.304-0.42c-1.029-0.775-1.587-1.783-1.884-2.456
					c0.384-0.464,0.775-0.928,1.174-1.399c0.406-0.478,0.819-0.971,1.239-1.464c1.746-0.848,3.768-1.833,6.087-2.993
					c2.152-1.073,4.319-2.225,7.225-3.667c6.087-3.014,7.833-3.623,9.246-2.84c1.159,0.645,1.348,1.812,2.377,1.833
					c1.536,0.029,1.985-2.558,3.319-2.638c1.688-0.102,2.304,3.529,5.594,6.782c2.826,2.783,6.971,4.623,8.254,3.522
					c1.398-1.203-1.102-5.514,0.13-6.312c0.717-0.456,1.543,1.102,4.007,1.898c4.225,1.37,6.833-0.29,11.253,1.63
					c0.485,0.21,0.87,0.413,1.109,0.536C261.614,110.625,261.788,111.959,261.882,113.437z"/>
			</g>
			<path style="opacity:0.35;fill:#E3F3FC;" d="M193.263,114.998c1.147,1.086,2.955,2.585,5.445,3.829
				c5.737,2.867,10.951,2.311,17.65,1.915c12.157-0.72,21.676-0.468,21.689-0.269c0.012,0.177-7.536,0.233-18.458,1.825
				c-3.226,0.47-5.752,0.93-9.633,0.898c-4.201-0.035-7.945-0.08-11.488-2.393C195.599,118.928,194.032,116.453,193.263,114.998z"/>
			<path style="opacity:0.35;fill:#E3F3FC;" d="M244.479,119.784c6.812,0.867,11.399-0.849,13.701-1.974
				c3.66-1.79,8.091-5.291,7.479-6.761c-0.272-0.655-1.493-0.779-2.513-0.778c0.271-0.027,3.205-0.291,3.829,1.017
				c0.607,1.272-1.341,3.252-2.209,4.133C260.024,120.241,249.942,120.17,244.479,119.784z"/>
			<path style="opacity:0.35;fill:#E3F3FC;" d="M201.739,107.758c-5.988-0.981-11.421,0.869-13.961,4.786
				c-1.564,2.412-2.112,5.734-1.197,8.137c2.413,6.335,15.849,8.533,33.266,5.983c-2.387,0.96-5.793,2.054-9.972,2.473
				c-14.387,1.443-30.249-5.876-30.235-12.055c0.01-4.265,7.585-7.83,11.736-9.014C195.818,106.801,199.653,107.313,201.739,107.758
				z"/>
		</g>
		<g>
			<path style="fill:#5A2F2A;" d="M189.9,69.32c-0.05,2.35-4.88,3.49-7.2,4.89c-15.44,9.24-34.23,12.81-52.46,9.79
				c-2.16,2.62-4.52,5.15-6.96,7.54c-2.72,2.65-5.54,5.24-8.37,7.83c-1.87,1.74-3.7,3.46-5.49,5.19c-4.54,4.44-8.71,9.1-11.93,14.47
				c-0.35,0.59-0.81,0.88-1.34,1.05c-0.14,0.26-0.32,0.55-0.42,0.82c-4.06,7.3-6.43,14.81-7.99,22.74c-0.49,2.32-0.84,4.68-1.2,7.11
				c-1.27,9.37-3.74,17.69-10.77,24.83c-7.28,7.37-17.03,11.93-24.94,18.55c-1.68,1.4-2.43,2.2-3.23,3.04
				c-3.91,4.08-8.6,11-10.5,22.83H22.64c4.46-7.71,11.19-17.27,21.2-26.4c6.28-5.73,12.48-10.04,17.91-13.27
				c0.03-0.32,0.14-0.65,0.38-0.98c6.96-10.85-2.22-22.8-6.92-32.63c-0.32-0.66-0.63-1.35-0.95-2.04
				c-2.37-5.27-4.24-10.81-4.91-16.41c-0.46-3.71-0.39-7.41,0.42-11.14c0.18-0.85,0.39-1.67,0.64-2.52
				c0.67-2.29,3.68-2.13,4.76-0.65c0.43,0.51,0.61,1.2,0.36,1.96c-1.2,3.96-1.41,7.92-0.92,11.81c0.64,5.68,2.76,11.22,5.26,16.56
				c1.17,2.49,2.44,4.92,3.71,7.31c3.75,7.08,7.21,15.07,5.97,22.77c3.89-3.44,7.24-7.41,9.08-12.12
				c2.05-5.25,2.51-10.88,3.29-16.35c0.1-0.76,0.21-1.48,0.35-2.2c1.2-7.3,3.39-14.31,6.6-20.98c1.03-2.22,2.16-4.35,3.43-6.44
				c0.39-0.63,0.92-0.95,1.52-1.12c2.16-3.34,4.63-6.42,7.35-9.37c1.99-2.17,4.07-4.27,6.22-6.32c-1.67-1.74-3.29-3.48-4.88-5.28
				c-4.14-4.63-7.84-9.56-10.03-15.14c-1.03-2.45-1.73-5.04-2.05-7.76c-0.18-1.57,2.47-1.57,2.65,0c0.32,2.69,1.06,5.24,2.08,7.67
				c2.7,6.23,7.35,11.66,12.15,16.74c0.65,0.7,1.29,1.39,1.91,2.03c0.32-0.29,0.6-0.56,0.92-0.85c2.45-2.27,4.91-4.52,7.31-6.78
				c4.49-4.3,8.83-8.75,12.19-13.9c3.5-5.27,5.83-10.96,7.7-16.89c0.21-0.67,0.42-1.36,0.64-2.04c0.91-3.05,6-1.74,5.08,1.31
				c-0.74,2.49-1.59,4.91-2.51,7.34c7-0.2,14.23-0.66,20.55-3.51c0.08,0,0.15-0.03,0.23-0.07c6.81-3.11,10.95-9.04,15.93-14.12
				c0.29-0.3,0.61-0.6,0.88-0.88c1.16-1.15,3.04,0.59,1.87,1.73c-5.19,5.08-9.43,11.14-16.04,14.72c-0.6,0.32-1.23,0.62-1.9,0.91
				c-7,3.05-14.84,3.48-22.43,3.71c-1.38,3.24-2.94,6.39-4.84,9.37c-0.36,0.62-0.82,1.18-1.2,1.77c15.08,2.03,30.73-0.86,43.83-8.03
				c1.44-0.79,4.83-6.3,8.73-5.67C188.05,66.16,189.94,67.8,189.9,69.32z"/>
			<path style="fill:#6F7F4E;" d="M213.781,47.141c-0.212,6.422-3.532,11.468-6.146,15.4c-0.353,0.524-0.742,1.114-1.201,1.802
				c-2.261,3.375-5.97,8.191-10.456,10.387c-14.483,7.143-28.789-17.071-52.916-16.153c-21.406,0.819-25.292,20.511-50.619,20.479
				c-8.513-0.033-21.3-2.294-24.374-8.486c-0.177-0.295-0.318-0.655-0.424-0.983c-2.084-6.717,7.277-15.171,14.306-19.201
				c8.16-4.718,14.412-4.194,22.749-5.701c21.089-3.768,21.442-14.319,42-21.625c17.45-6.225,43.872-8.126,57.755,4.587
				C206.646,29.677,214.064,37.148,213.781,47.141z"/>
			<path style="fill:#6F7F4E;" d="M122.327,108.216c-0.106,0.819-0.6,2.228-8.972,6.094c-12.399,5.767-25.398,9.24-40.34,11.402
				c-1.448,0.229-6.005,0.721-15.083,1.671c-21.3,2.261-28.012,2.654-29.319,0.066c-0.494-0.983-0.106-2.163,0.53-3.44
				c1.378-2.654,3.921-5.767,2.331-8.355c-0.848-1.376-2.014-1.179-2.508-2.326c-1.484-3.44,6.323-12.32,16.496-14.843
				c8.761-2.195,11.728,2.195,22.89,0.59c8.513-1.245,9.008-4.096,16.143-5.636c14.765-3.211,32.286,4.882,36.772,11.468
				C122.08,106.087,122.433,107.201,122.327,108.216z"/>
			<path style="fill:#45492D;" d="M122.327,108.216c-0.106,0.819-0.6,2.228-8.972,6.094c-12.399,5.767-25.398,9.24-40.34,11.402
				c-1.448,0.229-6.005,0.721-15.083,1.671c-21.3,2.261-28.012,2.654-29.319,0.066c-0.494-0.983-0.106-2.163,0.53-3.44
				c5.581-0.721,12.858-1.769,20.135-6.553c2.791-1.835,6.323-4.686,11.375-4.587c3.815,0.066,5.616,1.769,8.442,2.687
				c7.842,2.588,15.19-3.539,23.349-7.012c9.467-4.063,20.558-4.817,28.824-3.637C122.08,106.087,122.433,107.201,122.327,108.216z"
				/>
			<path style="fill:#45492D;" d="M206.434,64.343c-2.261,3.375-5.97,8.191-10.456,10.387
				c-14.483,7.143-28.789-17.071-52.916-16.153c-21.406,0.819-25.292,20.511-50.619,20.479c-8.513-0.033-21.3-2.294-24.374-8.486
				c4.945-3.047,18.263-1.343,35.748-6.946c23.279-7.438,23.703-18.152,42.565-20.282c11.445-1.311,20.523,1.573,33.629,5.734
				C194.212,53.596,204.844,56.971,206.434,64.343z"/>
		</g>
		<g>
			<path style="fill:#5A2F2A;" d="M600,179.62v6.01c-0.74-0.33-1.46-0.65-2.15-0.98c-5.76-2.74-11.92-4.85-17.45-8.15
				c-10.87-6.55-13.05-20.98-18.2-32.6c-2.24-4.96-5.04-8.64-8.49-12.03c-1.24-1.2-2.54-2.36-3.94-3.53
				c-4.76-3.95-8.69-8.16-11.27-14.36c-2.21-5.38-4.03-11.05-5.56-16.88c-8.95-2.29-17.42-6.39-25.1-11.95
				c-1.82,0.9-3.52,2.14-5.31,3.23c-2.28,1.39-4.62,2.26-7.22,2.52c-3.98,0.37-8.34,0.26-12.28-1.17c-1.21-0.41-2.34-0.97-3.41-1.65
				c-1.37-0.86-0.13-3.31,1.23-2.41c1.6,1.02,3.42,1.7,5.31,2.11c3.28,0.71,6.71,0.64,9.76,0.22c3.55-0.48,6.42-2.82,9.51-4.62
				c-3.7-2.88-7.22-6.08-10.47-9.6c-1.27-1.37-2.47-2.75-3.63-4.17c-1.92-2.28-3.67-4.64-5.3-7.12c-2.54-3.73-4.85-7.68-6.87-11.81
				c-1.99-4.06-3.71-8.27-5.18-12.67c-1.14-3.39,3.58-4.85,4.69-1.51c1.73,5.22,3.9,10.2,6.46,14.89c2.27,4.25,4.87,8.19,7.7,11.92
				c1.94,2.5,3.95,4.86,6.09,7.06c0.59,0.64,1.2,1.28,1.82,1.88c8.86,8.69,19.34,15.19,30.64,18.65
				c-1.27-5.34-2.35-10.75-3.36-16.05c-0.29-1.58-0.58-3.16-0.88-4.74c-0.65-3.57,4.07-5.04,4.72-1.5c0.36,2.03,0.75,4.06,1.18,6.09
				c1.13,5.73,2.44,11.43,3.87,17.06c1.85,7.18,3.58,14.89,6.74,21.47c0.19,0.41,0.42,0.75,0.62,1.13
				c2.54-11.28,5.63-22.37,9.34-33.24c1.07-3.19,2.28-6.46,3.12-9.84c0.65-2.53,1.08-5.08,1.14-7.67c0.04-2.07-0.16-4.1-0.55-6.09
				c-0.82-4.49-2.51-8.77-4.1-12.9c-1.27-3.3,2.96-6.16,4.23-2.85c1.6,4.13,3.22,8.34,4.23,12.7c0.39,1.7,0.69,3.39,0.88,5.15
				c0.36,3.46,0.1,6.84-0.52,10.11c-0.2,1.26-0.49,2.45-0.81,3.63c-0.46,1.86-1.01,3.67-1.63,5.43c-0.49,1.51-0.95,3.01-1.43,4.52
				c3.22-0.27,6.54-0.49,9.66-1.25c3.88-0.97,6.84-3.64,9.8-6.5c0.59-0.56,1.27-0.37,1.7,0.08c0.48,0.49,0.65,1.31,0.03,1.91
				c-3.16,3.05-6.38,6.02-10.45,7.11c-3.78,1.01-7.78,1.2-11.69,1.54c-3.51,10.94-6.67,21.99-9.08,33.42c2.6,2.74,5.6,4.96,8.5,7.56
				c1.36,1.24,2.63,2.59,3.8,4.02c2.38,2.89,4.33,6.2,5.96,9.88c2.7,6.06,4.46,12.56,7.1,18.65c3.22,7.52,7.68,11.35,14.35,14.36
				C591.91,175.9,595.97,177.71,600,179.62z"/>
			<path style="fill:#6F7F4E;" d="M588.864,48.195c-0.163,1.24-0.488,2.443-0.944,3.571c-1.986,5.037-6.576,9.21-12.598,12.518
				c-5.371,2.97-11.849,5.263-18.62,6.955c-9.831,2.443-20.215,3.609-28.614,3.609c-3.874,0-17.546,0.075-31.121-3.496
				c-6.803-1.804-13.575-4.549-19.043-8.684c-3.776-2.819-6.934-6.315-9.017-10.601c-0.651-1.241-1.204-2.519-1.628-3.872
				c-2.735-8.533-2.376-20.3,2.93-26.277c7.487-8.383,25.749-6.541,36.557-2.255c2.669,1.053,7.162,3.158,12.924,2.067
				c5.274-1.015,8.431-4.097,10.743-5.789c10.58-7.819,27.214-4.549,37.664,1.804C576.461,22.782,590.557,35.676,588.864,48.195z"/>
			<path style="fill:#6F7F4E;" d="M507.579,70.975c-0.651,1.353-6.218-2.895-10.612,0.376c-2.995,2.18-2.604,5.714-5.143,10.188
				c-4.102,7.255-11.589,9.398-12.631,9.699c-4.492,1.316-9.603,0.414-14.258-1.804c-7.715-3.684-14.128-11.09-14.128-18.458
				c0-8.609,7.487-15.977,18.099-18.909c3.19-0.902,6.641-1.391,10.287-1.391c5.567,0,10.58,1.88,14.844,4.549
				C502.924,60.713,508.295,69.472,507.579,70.975z"/>
			<path style="fill:#6F7F4E;" d="M600,59.11v19.26c-4.61,2.14-10.77,2.8-15.73,0.69c-2.2-0.95-3.61-2.21-4.91-3.42
				c-1.89-1.77-3.52-3.43-6.87-3.88c-5-0.69-7.44,2.19-11.26,1.6c-0.51-0.08-1.04-0.21-1.6-0.43c-0.97-0.38-1.96-0.93-2.9-1.67
				c-2.14-1.64-3.9-4.01-3.9-6.41c0-2.34,1.69-4.97,4.49-7.35c1.25-1.08,2.72-2.1,4.36-3.01c0.46-0.27,0.94-0.52,1.43-0.77
				c5.99-2.97,13.74-4.62,21.16-3.04c1.24,0.26,2.45,0.63,3.65,1.09C592.44,53.37,596.69,56.06,600,59.11z"/>
			<path style="fill:#45492D;" d="M600,69.7v8.67c-4.61,2.14-10.77,2.8-15.73,0.69c-2.2-0.95-3.61-2.21-4.91-3.42
				c-1.89-1.77-3.52-3.43-6.87-3.88c-5-0.69-7.44,2.19-11.26,1.6c-0.51-0.08-1.04-0.21-1.6-0.43c-0.97-0.38-1.96-0.93-2.9-1.67
				c-8,1.96-16.34,3.1-23.68,3.47c-1.72,0.08-3.37,0.12-4.96,0.12h-0.07c-3.59,0-15.1,0.04-27.28-2.6c-1.25-0.27-2.51-0.57-3.77-0.9
				c-0.93,0.68-1.54,1.49-2.01,2.42c-1.03,2.06-1.39,4.7-3.14,7.77c-1.56,2.76-3.62,4.79-5.62,6.25c-1.11,0.81-2.2,1.44-3.18,1.94
				c-1.91,0.96-3.41,1.39-3.83,1.51c-4.49,1.31-9.6,0.41-14.26-1.81c-2.31-6.61-2.67-14.96,0.72-20.11c2.44-3.72,6.25-4.96,9.12-5.9
				c1.07-0.38,2.14-0.6,3.15-0.75c3.04-0.57,5.76-0.46,8.11-0.18c2.86,0.34,5.17,0.92,6.83,0.85c1.05-0.04,1.84-0.36,2.35-1.16
				c1.11-1.73,0.06-4.29-1.17-6.96c-1.47-3.12-3.19-6.39-2.05-8.57c2.57-4.81,14.77,4.4,31.34,3.12
				c19.11-1.43,27.93-15.56,35.32-9.96c3.94,3.01,3.52,8.61,4.46,13.91c0.59,3.05,1.6,6.02,4.27,8.31c2.54,2.18,5.08,2.48,7.94,2.25
				c4.4-0.26,9.51-1.73,16.34,0.79C594.43,66.1,597.36,67.75,600,69.7z"/>
		</g>
		<g>
			<path style="fill:#CBD477;" d="M100.24,213.781c1.65,1.886,3.49,3.954,5.53,6.219h-6.22c-0.51-0.684-1.02-1.369-1.52-2.045
				c-8.18-11.002-14.1-20.536-12.91-20.901C86,196.795,89.16,201.22,100.24,213.781z"/>
			<path style="fill:#CBD477;" d="M129.34,203.372c0.13,5.353,0.14,10.994,0,16.628H107.6c-1.97-3.695-3.87-7.367-5.63-10.926
				c-2.75-5.505-5.21-10.728-7.22-15.305c-4.39-9.937-6.69-16.803-5.39-16.765c1.1,0.03,3.4,4.379,10.5,16.377
				c1.89,3.208,4.13,6.964,6.78,11.336c1.2,1.977,2.49,4.098,3.86,6.326c-0.3-1.095-0.59-2.174-0.87-3.246
				c-1.44-5.436-2.65-10.561-3.6-15.054c-2.17-10.318-2.9-17.282-1.51-16.872c1.11,0.335,2.37,4.554,6.43,16.218
				c1.02,2.935,2.22,6.341,3.64,10.272c-0.58-4.022-1.12-7.527-1.6-10.576c-2.08-13.26-3.07-17.898-2.16-18.544
				c1.14-0.806,4.07,6.6,7.25,17.67c1.16,4.06,2.36,8.607,3.52,13.427c0.26,1.072,0.52,2.167,0.77,3.262
				c0.19-2.463,0.36-4.782,0.51-6.964c0.29-4.09,0.51-7.679,0.7-10.827c0.85-14.378,0.83-19.426,1.88-19.783
				c1.25-0.418,2.5,7.307,3.26,18.597C129.01,193.077,129.23,198.088,129.34,203.372z"/>
			<path style="fill:#CBD477;" d="M137.32,210.519c-0.55,3.079-1.18,6.288-1.9,9.481h-5.91c1.48-4.881,2.71-9.109,3.73-12.743
				c4.18-14.788,4.97-19.783,5.91-19.791C140.43,187.466,139.57,197.996,137.32,210.519z"/>
			<path style="fill:#CBD477;" d="M155.96,206.086c-2.2,4.516-4.6,9.223-7.11,13.914h-13.02c2.52-6.736,4.63-12.576,6.41-17.647
				c2.94-8.295,5.01-14.469,6.51-18.962c2.48-7.368,3.46-10.211,4.37-10.492c1.02-0.304,0.92,3.444-0.06,9.618
				c-0.9,5.771-2.57,13.655-4.78,22.323c-0.27,1.08-0.55,2.167-0.84,3.262c1.35-2.243,2.63-4.364,3.8-6.349
				c5.4-9.04,9.05-15.465,11.58-19.844c3.29-5.687,4.67-7.93,5.46-7.961c0.9-0.03,0.12,3.193-1.84,8.439
				C164.23,188.302,160.5,196.795,155.96,206.086z"/>
			<path style="fill:#CBD477;" d="M159.97,214.944c-1.21,1.665-2.47,3.353-3.77,5.056h-6.59c3.1-3.459,5.79-6.523,8.12-9.215
				c10.96-12.621,14.09-17.061,14.97-16.803C173.89,194.332,168.06,203.904,159.97,214.944z"/>
			<path style="fill:#CBD477;" d="M82.74,215.157c0.93,1.559,1.86,3.186,2.78,4.843H74.73c-7.21-8.835-9.9-11.352-9.51-12.127
				c0.53-1.064,6.78,3.748,13.69,10.508c0.42,0.403,0.84,0.836,1.26,1.255c-0.53-1.216-1.05-2.357-1.54-3.429
				c-5.02-11.085-7.09-14.393-6.53-15.054C72.87,200.255,77.72,206.672,82.74,215.157z"/>
			<path style="fill:#CBD477;" d="M90.07,220h-3.44c-0.29-1.635-0.57-3.11-0.83-4.44c-1.61-8.325-2.48-10.918-1.99-11.26
				c0.68-0.456,2.94,4.714,4.99,11.298C89.24,217.012,89.67,218.495,90.07,220z"/>
		</g>
		<g>
			<path style="fill:#CBD477;" d="M546.22,210.72c-1.32,3.03-2.73,6.14-4.2,9.28h-20.31c-0.4-5.35-0.71-10.8-0.93-15.94
				c-0.31-6.85-0.46-13.19-0.46-18.11c-0.01-6.29,0.23-10.29,0.7-10.15c0.41,0.12,0.64,2.78,1.25,9.76
				c0.33,3.77,0.77,8.8,1.42,15.37c0.46,4.79,1.04,10.4,1.75,16.93c0.27-7.09,0.64-14.17,1.08-20.86c0.29-4.56,0.61-8.94,0.95-13.02
				c1.32-16.06,2.84-27.4,3.73-26.56c0.69,0.65,0.34,6.9-0.01,24.96c-0.08,3.69-0.15,7.87-0.21,12.6c-0.04,2.66-0.08,5.52-0.11,8.53
				c0.24-1.28,0.48-2.55,0.72-3.8c1.37-7.17,2.76-13.8,4.04-19.34c2.43-10.59,4.44-17.22,5.07-16.14c0.47,0.81-0.11,4.71-1.61,15.08
				c-0.76,5.21-1.74,12.06-2.94,20.97c-0.21,1.52-0.42,3.13-0.64,4.77c5.86-18.58,7.18-24.72,8.35-25.12
				c1.64-0.55-0.22,13-4.03,29.64c-0.22,1-0.46,2.01-0.7,3.02c1.13-2.07,2.19-4.05,3.17-5.89c7.25-13.56,10.74-20.79,12.58-23.89
				c0.77-1.31,1.26-1.89,1.6-1.9c0.43-0.02,0.39,0.99-0.03,2.78C555.31,188.48,551.41,198.91,546.22,210.72z"/>
			<path style="fill:#CBD477;" d="M549.56,218.95c-0.23,0.35-0.46,0.7-0.69,1.05h-5.03c1.4-1.77,2.69-3.4,3.86-4.91
				c9.12-11.71,11.72-15.83,12.45-15.6C561.14,199.82,556.29,208.7,549.56,218.95z"/>
			<path style="fill:#CBD477;" d="M417.26,209.51c2.35,3.01,5.13,6.49,8.37,10.49h-5.65c-1.42-2.03-2.81-4.06-4.13-6.04
				c-7.31-10.9-12.71-20.41-11.81-20.86C404.71,192.78,407.55,197.17,417.26,209.51z"/>
			<path style="fill:#CBD477;" d="M428.71,199.78c2.05,5.7,4.5,12.4,7.44,20.22h-10.34c-2.65-5.19-5.22-10.44-7.56-15.47
				c-3.8-8.11-7.07-15.63-9.33-21.39c-2.65-6.7-3.93-11.01-3.12-11.05c0.72-0.02,2.3,2.92,6.46,10.63
				c2.26,4.18,5.27,9.75,9.32,17.02c1.1,1.98,2.28,4.09,3.54,6.32c-0.32-1.12-0.64-2.22-0.94-3.31c-2.22-7.91-4.05-15.2-5.27-20.88
				c-1.61-7.44-2.18-12.13-1.27-11.85c0.76,0.24,1.82,3.32,4.61,11.4C423.8,185.89,425.87,191.89,428.71,199.78z"/>
			<path style="fill:#CBD477;" d="M473.71,205.55c-2.62,4.73-5.48,9.67-8.42,14.45h-28.44c-1.28-6.49-2.41-13.26-3.3-19.62
				c-1.1-7.67-1.89-14.77-2.3-20.17c-0.46-6.18-0.41-10.12,0.27-10.13c0.6,0,1.16,2.69,2.61,9.73c0.82,3.95,1.92,9.28,3.47,16.26
				c1.1,4.97,2.42,10.77,4.03,17.52c-0.2-7.67-0.25-15.37-0.16-22.66c0.04-4.23,0.12-8.32,0.24-12.2
				c0.55-18.66,1.9-32.31,3.34-31.68c1.15,0.5,1.08,8.27,2.32,31.04c0.16,2.83,0.33,5.89,0.53,9.2c0.17,2.86,0.36,5.92,0.57,9.16
				c0.25-1.45,0.5-2.89,0.75-4.3c0.89-5.08,1.81-9.93,2.73-14.41c3.33-16.38,6.53-27.69,7.76-26.56c0.95,0.88-0.1,7.4-2.21,26.34
				c-0.33,2.95-0.68,6.2-1.06,9.77c0.96-3.57,1.82-6.83,2.59-9.8c5.19-19.86,6.59-26.75,7.83-27.25c1.54-0.61,0.51,10.96-2.19,27.28
				c-0.75,4.59-1.65,9.56-2.65,14.74c-0.27,1.41-0.55,2.84-0.84,4.28c1.35-2.94,2.62-5.74,3.8-8.35c1.74-3.84,3.3-7.32,4.7-10.47
				c8.56-19.24,11.14-26.04,12.34-26.1c1.45-0.05-1.47,11.06-6.72,26.51c-1.66,4.89-3.55,10.22-5.61,15.76
				c-2.52,6.84-5.32,14.02-8.25,21.11c3.92-5.73,7.23-10.68,10.03-14.93c7.62-11.54,11.45-17.88,13.38-20.55
				c0.84-1.18,1.32-1.65,1.59-1.55c0.25,0.1,0.19,0.75-0.16,1.85C485.04,183.89,480.07,194.12,473.71,205.55z"/>
			<path style="fill:#CBD477;" d="M503.87,209.29c0.55,0.59-4.66,5.09-12.18,10.71h-6.2c0.06-0.04,0.12-0.07,0.18-0.11
				C499.14,211.84,503.36,208.75,503.87,209.29z"/>
			<path style="fill:#CBD477;" d="M486.52,214.89c-1.74,1.68-3.53,3.39-5.37,5.11h-14.28c4.43-5.02,8.26-9.42,11.58-13.29
				c13.54-15.72,18.55-22.31,20.38-23.58c0.25-0.18,0.44-0.26,0.59-0.25c0.18,0.01,0.25,0.18,0.21,0.48
				c-0.34,2.47-7.92,14.19-18.01,27.75c-0.67,0.91-1.36,1.83-2.06,2.75c1.97-1.63,3.83-3.18,5.56-4.64
				c18.14-15.18,23.6-20.61,24.62-20.18C511.12,189.64,500.49,201.43,486.52,214.89z"/>
		</g>
		<g>
			<path style="fill:#91A252;" d="M387.788,150.148c1.394,1.594,3.119,3.509,5.265,5.809c0.038,0.039,0.075,0.078,0.112,0.117
				c0.323,0.341,0.666,0.688,1.018,1.026c-0.063,0.037-0.123,0.085-0.186,0.122c-0.821,0.539-1.632,1.017-2.434,1.422
				c-0.07,0.031-0.14,0.063-0.209,0.094c-0.131-0.15-0.264-0.311-0.395-0.461c-0.03-0.033-0.061-0.067-0.086-0.105
				c-1.662-1.952-3.285-4.109-4.679-6.151c-2.997-4.359-4.99-8.188-4.34-8.391C382.334,143.483,383.474,145.241,387.788,150.148z"/>
			<path style="fill:#91A252;" d="M392.078,146.015c1.349,2.7,3.04,5.96,5.172,9.9c0.038,0.067,0.075,0.135,0.113,0.202
				c0.323,0.586,0.671,1.187,1.035,1.779c-0.1,0.03-0.201,0.075-0.301,0.105c-1.33,0.465-2.623,0.849-3.878,1.134
				c-0.108,0.019-0.216,0.039-0.323,0.058c-0.127-0.254-0.253-0.523-0.379-0.777c-0.03-0.057-0.06-0.114-0.081-0.176
				c-1.59-3.29-3.052-6.852-4.238-10.173c-2.563-7.099-3.932-13.113-2.96-13.17C386.953,134.859,387.893,137.698,392.078,146.015z"
				/>
			<path style="fill:#91A252;" d="M396.647,145.883c0.538,2.92,1.247,6.46,2.191,10.758c0.017,0.074,0.035,0.148,0.052,0.221
				c0.146,0.641,0.311,1.302,0.496,1.958c-0.105,0.006-0.216,0.027-0.321,0.033c-1.418,0.145-2.777,0.219-4.072,0.207
				c-0.11-0.006-0.219-0.012-0.329-0.018c-0.05-0.274-0.096-0.564-0.146-0.838c-0.013-0.062-0.025-0.124-0.029-0.189
				c-0.604-3.546-1.006-7.325-1.21-10.809c-0.463-7.452-0.079-13.581,0.877-13.413C394.859,133.921,394.961,136.882,396.647,145.883
				z"/>
		</g>
		<g>
			<g>
				<path style="fill:#91A252;" d="M401.409,147.68c1.161,2.976,2.631,6.574,4.504,10.926c0.033,0.075,0.067,0.149,0.1,0.224
					c0.286,0.648,0.595,1.313,0.925,1.97c-0.113,0.026-0.229,0.069-0.342,0.095c-1.51,0.423-2.97,0.759-4.377,0.994
					c-0.12,0.015-0.24,0.029-0.361,0.044c-0.109-0.28-0.215-0.576-0.324-0.856c-0.026-0.063-0.052-0.126-0.068-0.194
					c-1.356-3.624-2.54-7.532-3.45-11.166c-1.975-7.769-2.772-14.305-1.701-14.309C397.104,135.407,397.801,138.51,401.409,147.68z"
					/>
				<path style="fill:#91A252;" d="M410.032,143.534c0.478,4.583,1.145,10.144,2.082,16.906c0.018,0.116,0.035,0.232,0.053,0.349
					c0.149,1.008,0.324,2.051,0.529,3.086c-0.164-0.001-0.338,0.02-0.502,0.019c-2.217,0.085-4.335,0.065-6.341-0.081
					c-0.169-0.02-0.339-0.04-0.509-0.06c-0.045-0.431-0.08-0.884-0.124-1.315c-0.012-0.097-0.024-0.195-0.021-0.296
					c-0.503-5.56-0.664-11.462-0.555-16.887c0.194-11.606,1.538-21.076,3.001-20.721
					C408.722,124.799,408.518,129.403,410.032,143.534z"/>
				<path style="fill:#91A252;" d="M416.83,145.402c-0.839,4.541-1.772,10.071-2.785,16.824c-0.016,0.116-0.032,0.233-0.047,0.349
					c-0.142,1.009-0.269,2.057-0.364,3.105c-0.158-0.039-0.332-0.058-0.491-0.097c-2.168-0.427-4.21-0.931-6.108-1.533
					c-0.158-0.058-0.317-0.116-0.475-0.175c0.079-0.427,0.174-0.873,0.253-1.3c0.016-0.097,0.032-0.194,0.063-0.291
					c1.092-5.492,2.611-11.235,4.257-16.455c3.482-11.177,7.47-20.026,8.783-19.346C420.882,126.987,419.378,131.392,416.83,145.402
					z"/>
			</g>
			<path style="fill:#6F7F4E;" d="M420.211,163.071c-6.549,2.432-10.942,4.333-17.587,4.333c-5.549,0-14.956,0.665-17.587-4.333
				c-0.639-1.214-1.186-3.333-0.22-4.793c1.797-2.716,7.444-0.827,17.807,0.461c13.153,1.634,21.473,0.77,21.606,2.19
				C424.261,161.271,423.817,161.732,420.211,163.071z"/>
		</g>
		<path style="opacity:0.32;fill:#6F7F4E;" d="M366.541,201.642c0.152,3.327-19.677,9.922-40.129,8.917
			c-6.391-0.314-11.985-1.328-25.612-1.831c-7.829-0.289-11.247-0.149-13.026-0.054c-9.43,0.504-9.742,1.715-15.162,1.224
			c-6.405-0.579-7.863-2.441-14.302-2.212c-4.12,0.147-4.086,0.929-7.973,1.11c-6.678,0.31-15.783-1.583-16.402-5.173
			c-0.468-2.713,3.959-6.115,7.927-7.596c6.62-2.472,13.078-0.014,15.688,0.826c15.005,4.829,20.152-6.049,43.25-6.62
			c22.134-0.547,38.124,8.931,49.546,7.458c0.722-0.093,5.099-0.704,10.25,0.817C362.875,199.181,366.477,200.245,366.541,201.642z"
			/>
		<g>
			<g>
				<g>
					<g>
						<path style="fill:#F38E68;" d="M264.027,165.68c-0.834-3.776-1.668-7.553-2.502-11.329
							c2.811-6.985,6.415-14.552,11.069-22.379c1.675-2.816,3.376-5.483,5.082-8.003c2.382-0.78,4.937-0.295,6.653,1.305
							c1.673,1.56,1.917,3.592,1.966,4.168c-3.222,11.485-8.725,23.555-18.029,34.348c-0.726,0.843-1.461,1.66-2.202,2.454
							C265.385,166.056,264.706,165.868,264.027,165.68z"/>
						<path style="fill:#F38E68;" d="M235.123,140.803c-0.605,0.959-1.211,1.918-1.816,2.876
							c5.251,6.054,12.851,13.12,23.357,18.623c2.523,1.321,4.99,2.435,7.364,3.377c1.373-2.643,2.747-5.287,4.12-7.93
							c-2.187-1.76-4.053-2.947-5.17-3.619c-9.195-5.532-15.293-4.801-23.98-10.467C237.172,142.474,235.815,141.38,235.123,140.803
							z"/>
						<path style="fill:#F38E68;" d="M240.4,148.708c-3.213-1.581-6.426-3.163-9.638-4.744c0.816-2.713,1.631-5.427,2.447-8.14
							c3.429-0.316,6.858-0.633,10.288-0.949c0.549,1.931,1.099,3.862,1.648,5.793c-0.949,0.533-1.898,1.065-2.847,1.598
							c0.233,1.981,0.466,3.962,0.699,5.943L240.4,148.708z"/>
					</g>
					<g>
						<path style="fill:#210B04;" d="M262.723,157.298c-0.023,0-0.043-0.016-0.049-0.039l-0.849-3.758
							c-0.006-0.026,0.011-0.054,0.038-0.06c0.029-0.01,0.054,0.011,0.06,0.038l0.849,3.758c0.006,0.026-0.011,0.054-0.038,0.06
							C262.73,157.298,262.727,157.298,262.723,157.298z"/>
					</g>
				</g>
				<g>
					<g>
						<path style="fill:#F38E68;" d="M339.426,165.68c0.834-3.776,1.668-7.553,2.502-11.329
							c-2.811-6.985-6.415-14.552-11.069-22.379c-1.675-2.816-3.376-5.483-5.082-8.003c-2.382-0.78-4.937-0.295-6.653,1.305
							c-1.673,1.56-1.917,3.592-1.966,4.168c3.222,11.485,8.725,23.555,18.029,34.348c0.726,0.843,1.461,1.66,2.202,2.454
							C338.068,166.056,338.747,165.868,339.426,165.68z"/>
						<path style="fill:#F38E68;" d="M368.33,140.803c0.605,0.959,1.211,1.918,1.816,2.876c-5.251,6.054-12.851,13.12-23.357,18.623
							c-2.523,1.321-4.99,2.435-7.364,3.377c-1.373-2.643-2.747-5.287-4.12-7.93c2.187-1.76,4.053-2.947,5.17-3.619
							c9.195-5.532,15.293-4.801,23.98-10.467C366.28,142.474,367.638,141.38,368.33,140.803z"/>
						<path style="fill:#F38E68;" d="M363.053,148.708c3.213-1.581,6.426-3.163,9.638-4.744c-0.816-2.713-1.631-5.427-2.447-8.14
							c-3.429-0.316-6.858-0.633-10.288-0.949c-0.549,1.931-1.099,3.862-1.648,5.793c0.949,0.533,1.898,1.065,2.847,1.598
							c-0.233,1.981-0.466,3.962-0.699,5.943L363.053,148.708z"/>
					</g>
					<g>
						<path style="fill:#210B04;" d="M340.729,157.298c-0.038-0.007-0.055-0.034-0.049-0.061l0.849-3.758
							c0.006-0.027,0.034-0.044,0.06-0.038c0.027,0.006,0.044,0.033,0.038,0.06l-0.849,3.758
							C340.773,157.282,340.752,157.298,340.729,157.298z"/>
					</g>
				</g>
				<g>
					<g>
						<path style="fill:#F38E68;" d="M327.711,128.544c-17.396-0.103-34.791-0.206-52.187-0.309c0.355-1.759,1.135-4.137,3.07-6.01
							c3.878-3.754,8.75-1.897,12.684-4.845c2.078-1.557,4.28-4.694,4.565-11.621c0.267-0.013,0.529-0.036,0.792-0.058
							c1.593-0.111,3.181-0.222,4.769-0.334c1.584,0.111,3.172,0.223,4.76,0.334c0.267,0.022,0.525,0.045,0.792,0.058
							c0.289,6.927,2.483,10.064,4.565,11.621c3.914,2.927,8.614,1.146,12.68,4.845C326.337,124.169,327.263,126.68,327.711,128.544
							z"/>
						<path style="fill:#F38E68;" d="M301.448,80.278c-1.019-0.008-1.902,0.045-2.737,0.143c-4.592,0.54-8.053,4.43-8.053,9.054
							v9.387c0.239,1.18,1.201,5.176,4.905,8.024c2.147,1.653,4.331,2.243,5.596,2.477c0.082,0,0.162-0.004,0.243-0.008
							c0.081,0.004,0.16,0.008,0.242,0.008c1.265-0.234,3.449-0.824,5.596-2.477c3.704-2.848,4.666-6.845,4.905-8.024v-9.387
							c0-4.623-3.461-8.513-8.053-9.054C303.258,80.323,302.375,80.27,301.448,80.278z"/>
						<g>
							<path style="fill:#F38E68;" d="M292.588,95.761c0,1.889-1.13,3.421-2.524,3.421c-1.394,0-2.524-1.532-2.524-3.421
								c0-1.889,1.13-3.421,2.524-3.421C291.458,92.34,292.588,93.872,292.588,95.761z"/>
							<path style="fill:#F38E68;" d="M315.262,95.761c0,1.889-1.13,3.421-2.524,3.421s-2.524-1.532-2.524-3.421
								c0-1.889,1.13-3.421,2.524-3.421S315.262,93.872,315.262,95.761z"/>
						</g>
						<path style="fill:#FFFFFF;" d="M316.989,127.397c0.11-0.003,0.37,0.008,0.593,0.185c0.313,0.25,0.424,0.726,0.261,1.186
							c-11.667,0-23.334,0-35.001,0c-0.139-0.368-0.047-0.769,0.223-1.001c0.286-0.247,0.648-0.194,0.704-0.185
							c4.645-1.216,8.273-1.188,10.752-0.927c2.023,0.213,2.548,0.504,4.783,0.612c3.975,0.192,5.713-0.563,8.954-0.779
							C310.267,126.355,313.245,126.403,316.989,127.397z"/>
						<path style="fill:#F38E68;" d="M324.614,192.403c-3.847,1.56-8.746,3.157-14.552,4.101c-3.157,0.508-6.097,0.762-8.746,0.835
							c-0.145-1.524-0.617-1.524-0.726,0c-2.649-0.073-5.589-0.327-8.782-0.835c-5.77-0.943-10.669-2.54-14.516-4.101
							c0.399-4.391,1.669-11.323,5.879-18.581c1.996-3.447,4.173-6.169,6.169-8.238c-0.145-0.798-0.29-1.597-0.472-2.395
							c-0.472-2.649-0.98-5.298-1.524-7.947c-0.617-3.266-1.234-6.532-1.887-9.798c-2.468-1.27-4.173-3.774-4.173-6.641
							c0-1.887,0.762-3.629,1.96-4.935c-0.327-1.778-0.689-3.556-1.016-5.335c0.98-1.125,2.395-2.504,4.428-3.484
							c6.459-3.23,13.173-0.109,14.225,0.399c0.036,0,0.036,0,0.073,0c1.125-0.508,7.839-3.629,14.262-0.399
							c2.032,0.98,3.484,2.359,4.464,3.484c-0.363,1.778-0.69,3.556-1.016,5.335c1.198,1.306,1.923,3.049,1.923,4.935
							c0,2.867-1.669,5.371-4.173,6.641c-0.943,4.935-1.887,9.871-2.831,14.806c-0.327,1.778-0.689,3.556-1.016,5.335
							c1.96,2.068,4.173,4.79,6.169,8.238C322.945,181.08,324.215,188.011,324.614,192.403z"/>
						<path style="fill:#FFF1E9;" d="M256.854,164.017c-2.72,0-5.236,1.281-6.471,3.441c-1.73,3.026-0.736,7.407,2.713,9.877
							c3.984,4.697,10.648,11.395,20.539,16.944c8.048,4.515,15.522,6.748,20.96,7.916c1.403-0.76,5.192-3.06,7.275-7.775
							c0.539-1.221,2.822-6.39,0.425-11.68c-1.009-2.227-2.491-3.688-3.478-4.508c-3.251-1.533-6.662-3.032-10.234-4.472
							C277.309,169.214,266.592,166.125,256.854,164.017z"/>
						<path style="fill:#FFF1E9;" d="M347.317,164.017c2.72,0,5.236,1.281,6.471,3.441c1.73,3.026,0.736,7.407-2.713,9.877
							c-3.984,4.697-10.648,11.395-20.539,16.944c-8.048,4.515-15.522,6.748-20.96,7.916c-1.403-0.76-5.192-3.06-7.275-7.775
							c-0.539-1.221-2.822-6.39-0.425-11.68c1.009-2.227,2.491-3.688,3.478-4.508c3.251-1.533,6.662-3.032,10.234-4.472
							C326.862,169.214,337.579,166.125,347.317,164.017z"/>
						<path style="fill:#FFF1E9;" d="M317.918,198.998c-2.099,1.474-8.118,5.288-16.691,5.294
							c-7.968,0.006-13.668-3.281-15.857-4.703c-0.89-8.553-1.78-17.107-2.671-25.66c1.498-3.096,2.996-6.193,4.495-9.289
							c2.854,0.439,5.923,0.79,9.189,0.999c6.602,0.421,12.58,0.169,17.757-0.387c2.188,2.709,4.376,5.419,6.564,8.128
							C319.775,181.918,318.847,190.458,317.918,198.998z"/>
						<path style="fill:#FFF1E9;" d="M287.943,135.474h-1.648c0.3-5.527,0.599-11.053,0.899-16.58
							c0.533-0.283,1.065-0.566,1.598-0.849C288.509,123.854,288.226,129.664,287.943,135.474z"/>
						<path style="fill:#FFF1E9;" d="M314.863,135.474h1.648c-0.3-5.527-0.599-11.053-0.899-16.58
							c-0.533-0.283-1.065-0.566-1.598-0.849C314.297,123.854,314.58,129.664,314.863,135.474z"/>
						<path style="fill:#210B04;" d="M313.582,160.25c-1.96,0.435-3.956,0.871-6.024,1.234c-6.677,1.198-12.955,1.669-18.689,1.706
							c-0.472-2.649-0.98-5.298-1.524-7.947h18.072C308.138,156.911,310.86,158.58,313.582,160.25z"/>
						<path style="fill:#FFF1E9;" d="M318.756,159.82c-4.323,0.442-9.087,0.712-14.231,0.674c-7.81-0.057-14.812-0.809-20.823-1.824
							c-0.292-0.726-0.746-1.925-1.179-3.443c-1.301-4.563-1.389-8.426-1.477-13.909c-0.021-1.279-0.031-3.136,0.03-5.394
							c0.275-1.814,0.549-3.629,0.824-5.443c4.167,1.607,10.938,3.638,19.477,3.696c8.187,0.056,14.744-1.724,18.877-3.196
							c-0.1,0.824-0.2,1.648-0.3,2.472c0.386,1.192,0.873,2.973,1.126,5.173c0.399,3.463-0.02,5.886-0.897,11.607
							C319.875,152.245,319.372,155.561,318.756,159.82z"/>
						<g>
							<path style="fill:#210B04;" d="M303.37,202.244c-0.025,0-0.048-0.02-0.05-0.045l-2.57-27.567
								c-0.003-0.027,0.018-0.052,0.045-0.055c0.03,0,0.052,0.02,0.055,0.045l2.57,27.567c0.003,0.027-0.018,0.052-0.045,0.055
								C303.373,202.244,303.372,202.244,303.37,202.244z"/>
						</g>
						<g>
							<path style="fill:#210B04;" d="M275.957,175.226c-0.057-0.045-0.051-0.076-0.028-0.091c0.986-0.664,2.048-1.204,3.157-1.604
								c1.57-0.566,3.217-0.854,4.899-0.854c0.071,0,0.142,0.001,0.212,0.002c0.028,0,0.05,0.022,0.049,0.051
								c0,0.027-0.023,0.049-0.05,0.049c-0.071-0.001-0.142-0.001-0.212-0.001c-1.67,0-3.305,0.284-4.865,0.847
								c-1.102,0.398-2.157,0.933-3.136,1.592C275.977,175.223,275.967,175.226,275.957,175.226z"/>
						</g>
						<g>
							<path style="fill:#210B04;" d="M326.921,174.215c-1.137-0.552-2.306-0.992-3.496-1.313c-1.305-0.351-2.649-0.564-3.997-0.635
								c-0.027-0.001-0.049-0.024-0.047-0.053c0.001-0.027,0.018-0.049,0.053-0.047c1.354,0.07,2.706,0.285,4.017,0.639
								c1.197,0.322,2.372,0.765,3.493,1.314c0.024,0.013,0.034,0.042,0.022,0.067C326.957,174.205,326.939,174.215,326.921,174.215
								z"/>
						</g>
					</g>
					<path style="fill:#5A2F2A;" d="M313.202,94.881c-0.908,4.506-3.315,7.307-4.871,9.165c-2.142,2.556-4.122,4.919-6.688,4.789
						c-1.533-0.078-2.691-1.096-5.007-3.133c-1.595-1.403-3.347-2.944-4.736-5.124c-0.993-1.56-5.02-7.88-1.984-14.32
						c2.141-4.542,7.036-7.52,12.135-7.416c0.512,0.01,6.946,0.246,10.188,5.394C314.594,87.976,313.789,91.967,313.202,94.881z"/>
				</g>
			</g>
			<circle style="fill:#5A2F2A;" cx="306.369" cy="77.507" r="7.645"/>
		</g>
		<g>
			<path style="fill:#FFFFFF;" d="M189.326,146.497c0,0.325-0.956,0.589-2.136,0.589c-1.179,0-2.136-0.264-2.136-0.589
				c0-0.325,0.956-0.589,2.136-0.589C188.37,145.908,189.326,146.172,189.326,146.497z"/>
			<path style="fill:#FFFFFF;" d="M192.321,148.757c0,0.296-0.542,0.537-1.21,0.537c-0.668,0-1.21-0.24-1.21-0.537
				s0.542-0.537,1.21-0.537C191.779,148.22,192.321,148.46,192.321,148.757z"/>
			<path style="fill:#FFFFFF;" d="M193.888,146.845c0,0.192-0.351,0.348-0.783,0.348c-0.433,0-0.783-0.156-0.783-0.348
				s0.351-0.348,0.783-0.348C193.537,146.497,193.888,146.653,193.888,146.845z"/>
			<path style="fill:#FFFFFF;" d="M194.881,144.568c0,0.197-0.398,0.356-0.888,0.356c-0.49,0-0.888-0.159-0.888-0.356
				c0-0.196,0.398-0.356,0.888-0.356C194.483,144.212,194.881,144.371,194.881,144.568z"/>
			<path style="fill:#FFFFFF;" d="M176.468,145.206c0,0.156-0.425,0.283-0.95,0.283c-0.524,0-0.949-0.126-0.949-0.283
				c0-0.156,0.425-0.283,0.949-0.283C176.043,144.923,176.468,145.05,176.468,145.206z"/>
			<path style="fill:#FFFFFF;" d="M168.652,148.757c0,0.296-0.45,0.537-1.005,0.537c-0.555,0-1.005-0.24-1.005-0.537
				s0.45-0.537,1.005-0.537C168.202,148.22,168.652,148.46,168.652,148.757z"/>
			<path style="fill:#FFFFFF;" d="M162.018,146.203c0,0.163-0.407,0.294-0.908,0.294s-0.908-0.132-0.908-0.294
				c0-0.163,0.407-0.295,0.908-0.295S162.018,146.04,162.018,146.203z"/>
			<path style="fill:#FFFFFF;" d="M163.092,150.762c0,0.264-1.201,0.478-2.683,0.478c-1.482,0-2.684-0.214-2.684-0.478
				c0-0.264,1.201-0.478,2.684-0.478C161.89,150.284,163.092,150.498,163.092,150.762z"/>
			<ellipse style="fill:#FFFFFF;" cx="175.353" cy="149.789" rx="2.188" ry="0.495"/>
			<path style="fill:#FFFFFF;" d="M179.642,148.225c0,0.003-0.378,0.005-0.844,0.005s-0.844-0.002-0.844-0.005
				c0-0.003,0.378-0.005,0.844-0.005S179.642,148.223,179.642,148.225z"/>
			<ellipse style="fill:#FFFFFF;" cx="225.679" cy="154.242" rx="2.229" ry="1"/>
			<path style="fill:#FFFFFF;" d="M226.257,151.143c0,0.21-0.296,0.38-0.661,0.38c-0.365,0-0.661-0.17-0.661-0.38
				c0-0.21,0.296-0.381,0.661-0.381C225.961,150.762,226.257,150.932,226.257,151.143z"/>
			<path style="fill:#FFFFFF;" d="M222.376,152.671c0,0.315-0.832,0.57-1.858,0.57c-1.026,0-1.858-0.255-1.858-0.57
				s0.832-0.57,1.858-0.57C221.544,152.101,222.376,152.356,222.376,152.671z"/>
			<path style="fill:#FFFFFF;" d="M427.312,144.555c0,0.515-0.838,0.933-1.871,0.933c-1.034,0-1.872-0.418-1.872-0.933
				c0-0.516,0.838-0.933,1.872-0.933C426.474,143.622,427.312,144.04,427.312,144.555z"/>
			<path style="fill:#FFFFFF;" d="M432.101,142.647c0,0.16-0.258,0.289-0.576,0.289c-0.318,0-0.576-0.129-0.576-0.289
				c0-0.16,0.258-0.289,0.576-0.289C431.843,142.358,432.101,142.487,432.101,142.647z"/>
			<ellipse style="fill:#FFFFFF;" cx="430.821" cy="145.333" rx="1.28" ry="0.41"/>
			<path style="fill:#FFFFFF;" d="M438.624,140.218c0,0.323-0.554,0.585-1.237,0.585c-0.683,0-1.237-0.262-1.237-0.585
				s0.554-0.585,1.237-0.585C438.07,139.633,438.624,139.895,438.624,140.218z"/>
			<path style="fill:#FFFFFF;" d="M428.881,122.825c0,0.43-0.77,0.779-1.72,0.779c-0.95,0-1.72-0.349-1.72-0.779
				c0-0.43,0.77-0.779,1.72-0.779C428.111,122.046,428.881,122.395,428.881,122.825z"/>
			<ellipse style="fill:#FFFFFF;" cx="432.227" cy="120.684" rx="1.278" ry="0.454"/>
			<ellipse style="fill:#FFFFFF;" cx="433.505" cy="123.674" rx="1.404" ry="0.849"/>
			<ellipse style="fill:#FFFFFF;" cx="395.812" cy="128.185" rx="1.28" ry="0.584"/>
			<path style="fill:#FFFFFF;" d="M401.055,131.376c0,0.274-0.795,0.495-1.775,0.495s-1.775-0.222-1.775-0.495
				c0-0.274,0.795-0.495,1.775-0.495S401.055,131.102,401.055,131.376z"/>
			<path style="fill:#FFFFFF;" d="M479.224,145.148c0,0.505-0.974,0.915-2.176,0.915c-1.202,0-2.176-0.41-2.176-0.915
				s0.974-0.915,2.176-0.915C478.25,144.233,479.224,144.642,479.224,145.148z"/>
			<path style="fill:#FFFFFF;" d="M474.211,140.511c0,0.162-0.518,0.293-1.156,0.293c-0.638,0-1.156-0.131-1.156-0.293
				c0-0.162,0.518-0.293,1.156-0.293C473.693,140.218,474.211,140.349,474.211,140.511z"/>
			<path style="fill:#FFFFFF;" d="M473.804,143.134c0,0.269-0.648,0.488-1.448,0.488c-0.8,0-1.448-0.218-1.448-0.488
				c0-0.269,0.648-0.487,1.448-0.487C473.155,142.647,473.804,142.865,473.804,143.134z"/>
			<path style="fill:#FFFFFF;" d="M466.87,141.151c0,0.354-0.519,0.64-1.16,0.64c-0.64,0-1.16-0.287-1.16-0.64
				c0-0.354,0.519-0.64,1.16-0.64C466.351,140.511,466.87,140.797,466.87,141.151z"/>
			<ellipse style="fill:#FFFFFF;" cx="481.259" cy="140.227" rx="2.035" ry="0.924"/>
			<path style="fill:#FFFFFF;" d="M521.523,144.273c0,0.359-0.665,0.651-1.486,0.651s-1.486-0.291-1.486-0.651
				c0-0.36,0.665-0.651,1.486-0.651S521.523,143.913,521.523,144.273z"/>
			<ellipse style="fill:#FFFFFF;" cx="522.101" cy="140.365" rx="0.578" ry="0.146"/>
			<ellipse style="fill:#FFFFFF;" cx="516.651" cy="140.17" rx="0.826" ry="0.537"/>
			<path style="fill:#FFFFFF;" d="M514.752,144.273c0,0.359-0.906,0.651-2.023,0.651c-1.117,0-2.023-0.291-2.023-0.651
				c0-0.36,0.906-0.651,2.023-0.651C513.847,143.622,514.752,143.913,514.752,144.273z"/>
			<path style="fill:#FFFFFF;" d="M532.587,147.075c0,0.359-0.702,0.649-1.569,0.649c-0.866,0-1.569-0.291-1.569-0.649
				c0-0.359,0.702-0.649,1.569-0.649C531.885,146.426,532.587,146.717,532.587,147.075z"/>
			<path style="fill:#FFFFFF;" d="M114.651,143.998c0,0.511-1.216,0.925-2.716,0.925c-1.5,0-2.716-0.414-2.716-0.925
				c0-0.511,1.216-0.925,2.716-0.925C113.435,143.073,114.651,143.488,114.651,143.998z"/>
			<ellipse style="fill:#FFFFFF;" cx="117.431" cy="146.713" rx="1.858" ry="0.805"/>
			<path style="fill:#FFFFFF;" d="M122.55,144.85c0,0.353-0.61,0.638-1.362,0.638c-0.752,0-1.362-0.286-1.362-0.638
				c0-0.352,0.61-0.638,1.362-0.638C121.94,144.212,122.55,144.498,122.55,144.85z"/>
			<ellipse style="fill:#FFFFFF;" cx="121.869" cy="141.47" rx="1.177" ry="0.475"/>
			<path style="fill:#FFFFFF;" d="M31.807,146.146c0,0.519-1.109,0.94-2.477,0.94c-1.368,0-2.477-0.421-2.477-0.94
				c0-0.519,1.109-0.94,2.477-0.94C30.698,145.206,31.807,145.627,31.807,146.146z"/>
			<path style="fill:#FFFFFF;" d="M32.633,150.656c0,0.479-0.95,0.867-2.122,0.867c-1.172,0-2.122-0.388-2.122-0.867
				c0-0.479,0.95-0.867,2.122-0.867C31.683,149.789,32.633,150.177,32.633,150.656z"/>
			<ellipse style="fill:#FFFFFF;" cx="44.688" cy="150.14" rx="3.963" ry="1.383"/>
		</g>
	</g>
</g>
</svg>
