<?xml version="1.0" encoding="UTF-8"?>
<svg id="Layer_1" data-name="Layer 1" xmlns="http://www.w3.org/2000/svg" xmlns:xlink="http://www.w3.org/1999/xlink" viewBox="0 0 603.4 366.6">
  <defs>
    <style>
      .cls-1 {
        fill: url(#linear-gradient-2);
      }

      .cls-2 {
        fill: #662d91;
      }

      .cls-3 {
        fill: #262262;
      }

      .cls-4 {
        fill: url(#linear-gradient);
      }
    </style>
    <linearGradient id="linear-gradient" x1="401.46" y1="88.36" x2="584.01" y2="88.36" gradientUnits="userSpaceOnUse">
      <stop offset="0" stop-color="#21409a"/>
      <stop offset=".26" stop-color="#463f99"/>
      <stop offset=".52" stop-color="#653f98"/>
      <stop offset=".74" stop-color="#783f98"/>
      <stop offset=".9" stop-color="#7f3f98"/>
    </linearGradient>
    <linearGradient id="linear-gradient-2" x1="23.92" y1="278.25" x2="206.47" y2="278.25" gradientTransform="translate(206.47) rotate(-180) scale(1 -1)" gradientUnits="userSpaceOnUse">
      <stop offset=".15" stop-color="#7f3f98"/>
      <stop offset=".77" stop-color="#21409a"/>
    </linearGradient>
  </defs>
  <g>
    <path class="cls-3" d="m184.06,107.32v6.44c-11.1,12.36-21.3,22.55-30.58,30.58-9.28,8.03-18.35,14.21-27.21,18.54-8.86,4.33-17.41,6.49-25.67,6.49-7.14,0-13.27-1.42-18.39-4.26-5.12-2.84-8.99-6.99-11.6-12.44-2.61-5.45-3.92-11.91-3.92-19.38,0-5.88.94-12.11,2.83-18.68,1.88-6.57,4.61-13.22,8.18-19.92,3.57-6.71,7.94-13.63,13.13-20.77,5.19-7.14,11.28-14.64,18.29-22.5,7.27-8.13,14.44-15.15,21.51-21.06,7.07-5.91,13.48-10.56,19.23-13.93,5.75-3.37,11.08-5.88,16.01-7.53,4.92-1.65,9-2.48,12.24-2.48s6.11.79,8.42,2.38c2.31,1.59,4.1,3.9,5.35,6.94,1.25,3.04,1.88,6.54,1.88,10.51,0,7.47-2.54,15.78-7.63,24.93-5.09,9.15-11.43,17.99-19.03,26.51-7.6,8.52-14.85,15.48-21.76,20.87-6.91,5.39-11.88,8.08-14.92,8.08-2.05,0-3.95-.81-5.7-2.43-1.75-1.62-2.63-3.45-2.63-5.5,0-3.77,2-8.33,6-13.68,4-5.35,8.36-10.26,13.08-14.72,4.72-4.46,7.55-6.69,8.47-6.69.46,0,.69.2.69.59,0,.59-.35,1.62-1.04,3.07-.69,1.45-1.04,2.35-1.04,2.68,0,.53.2.79.59.79,1.12,0,4.36-3.01,9.71-9.02,5.35-6.01,10.26-12.64,14.72-19.87,4.46-7.24,6.69-13.17,6.69-17.79,0-1.92-.41-3.39-1.24-4.41-.83-1.02-2.07-1.54-3.72-1.54-4.63,0-11.65,3.75-21.06,11.25-9.42,7.5-19.07,17.05-28.94,28.65-9.88,11.6-18.12,23.58-24.73,35.93-6.61,12.36-9.91,23.23-9.91,32.61,0,5.42.81,9.95,2.43,13.58,1.62,3.63,4,6.44,7.14,8.43,3.14,1.98,6.92,2.97,11.35,2.97,9.58,0,20.45-3.73,32.61-11.2,12.16-7.47,25.54-18.47,40.14-33.01Z"/>
    <path class="cls-3" d="m193.27,95.53c8.91-8.09,17.55-14.09,25.93-18.02,8.38-3.92,14.85-5.89,19.42-5.89,1.23,0,2.37.51,3.43,1.54,1.05,1.03,1.89,2.21,2.5,3.56.62,1.35.92,2.34.92,2.99,0,1.05-.41,1.83-1.23,2.33-.82.5-2.26,1.1-4.31,1.8.41.94.94,2.14,1.58,3.6.64,1.47,1.14,2.65,1.49,3.56.35.91.53,1.71.53,2.42,0,1.41-1.42,4.03-4.26,7.87-2.84,3.84-4.83,6.67-5.98,8.48-1.14,1.82-1.71,4.04-1.71,6.68,0,4.34,1.99,6.5,5.98,6.5s10.52-3.84,19.25-11.51v5.36c-14.82,16.47-25.43,24.7-31.82,24.7-2.29,0-3.91-.75-4.88-2.24s-1.45-3.71-1.45-6.64c0-4.63,1.67-11.34,5.01-20.13-8.56,9.49-14.91,16.25-19.07,20.26-4.16,4.01-7.59,6.02-10.28,6.02-1.29,0-2.9-1.11-4.83-3.34-1.93-2.23-3.65-5.11-5.14-8.66-1.49-3.54-2.24-7.22-2.24-11.03,0-2.75.26-5.05.79-6.9s1.55-3.74,3.08-5.67c1.52-1.93,3.96-4.48,7.29-7.65Zm42.1-9.67c-15.24,6.97-26.09,12.89-32.56,17.75-6.47,4.86-9.71,9.87-9.71,15.03,0,1.88.32,3.41.97,4.61.64,1.2,1.52,1.8,2.64,1.8.64,0,1.79-.41,3.43-1.23,6.15-3.63,11.78-8.36,16.88-14.19,5.1-5.83,11.22-13.75,18.37-23.77Z"/>
    <path class="cls-3" d="m255.15,118.03v-5.71c3.16-3.75,5.57-6.94,7.21-9.58-1.88-.64-3.24-1.44-4.09-2.37-.85-.94-1.27-2.34-1.27-4.22,0-2.11.88-4.77,2.64-8,1.76-3.22,3.92-6.24,6.5-9.05,2.58-2.81,4.92-4.63,7.03-5.45.82-.41,1.61-.62,2.37-.62,1.17,0,1.76.56,1.76,1.67,0,1-.91,3.02-2.72,6.06,12.07-1.87,19.69-2.81,22.85-2.81,1.23,0,2.08.12,2.55.35,1,.53,1.82,1.76,2.46,3.69.64,1.93.97,3.87.97,5.8,0,1.23-.54,2.56-1.63,4-1.08,1.44-2.94,3.53-5.58,6.28-3.11,3.34-5.71,6.97-7.82,10.9-2.11,3.93-3.16,6.89-3.16,8.88,0,2.75,1.7,4.13,5.1,4.13,3.57,0,9.79-3.63,18.63-10.9v5.89c-4.86,5.1-8.88,9.11-12.04,12.04-3.16,2.93-6.09,5.26-8.79,6.99-2.7,1.73-5.1,2.59-7.21,2.59-2.46,0-4.51-1.13-6.15-3.38-1.64-2.25-2.46-5.52-2.46-9.8,0-2.52.64-5.39,1.93-8.61,1.29-3.22,3.18-6.72,5.67-10.5,2.49-3.78,5.29-7.54,8.39-11.29-1.64.35-3.49.72-5.54,1.1-2.05.38-4.22.78-6.5,1.19-2.29.41-4.04.73-5.27.97-3.63,7.27-8.91,13.86-15.82,19.78Z"/>
    <path class="cls-3" d="m322.65,114.42v2.2c0,3.46.85,6.15,2.55,8.09,1.7,1.93,3.92,2.9,6.68,2.9s5.84-.67,8.92-2.02c3.08-1.35,6.14-3.13,9.18-5.36,3.05-2.23,6.77-5.21,11.16-8.96v5.36c-6.62,7.97-12.83,14.08-18.63,18.33s-11.69,6.37-17.67,6.37c-5.22,0-9.35-2.02-12.39-6.06-3.05-4.04-4.57-9.58-4.57-16.61,0-6.15,1.44-11.73,4.31-16.74,2.87-5.01,7.56-10.3,14.06-15.86,4.45-3.81,8.88-6.68,13.27-8.61s8.32-2.9,11.78-2.9c2.75,0,4.94.63,6.55,1.89,1.61,1.26,2.42,3.15,2.42,5.67,0,3.69-1.38,7.37-4.13,11.03-2.75,3.66-6.96,7.29-12.61,10.9-5.66,3.6-12.61,7.08-20.87,10.42Zm.88-5.71c5.27-2.05,9.79-4.6,13.54-7.65,3.75-3.05,6.52-5.96,8.31-8.75,1.79-2.78,2.68-4.82,2.68-6.11s-.62-2.02-1.85-2.02c-1.05,0-2.77.67-5.14,2.02-2.37,1.35-4.78,3.11-7.21,5.27-2.43,2.17-4.61,4.72-6.55,7.65-1.93,2.93-3.19,6.12-3.78,9.58Z"/>
    <g>
      <path class="cls-2" d="m328.1,248.34v5.25c-7.53,6.34-15,12.41-22.4,18.19-7.4,5.78-16.39,12.24-26.96,19.38-5.42,7.4-10.08,13.46-13.98,18.19-3.9,4.72-7.27,8.64-10.11,11.75-2.84,3.11-4.3,4.69-4.36,4.76-.93,1.12-2.48,2.25-4.66,3.37-2.18,1.12-4,1.68-5.45,1.68-2.05,0-3.75-.74-5.1-2.23-1.35-1.49-2.03-3.25-2.03-5.3,0-5.29,2.78-10.92,8.33-16.9,5.55-5.98,13.68-12.11,24.38-18.39,5.29-7.6,10.34-15.25,15.17-22.95,4.82-7.7,9.04-14.72,12.64-21.06,3.6-6.34,6.92-12.59,9.96-18.73-4.76,3.96-9.48,7.78-14.17,11.45-4.69,3.67-9.28,7.17-13.78,10.51-4.49,3.34-7.27,5.4-8.33,6.2-1.06.79-1.98,1.49-2.78,2.08-11.5,10.04-20.09,15.07-25.77,15.07s-9.98-2.58-13.68-7.73c-3.7-5.15-5.55-11.66-5.55-19.53,0-4.96.79-10.12,2.38-15.51,1.59-5.39,4.01-10.92,7.29-16.6,3.27-5.68,7.19-11.17,11.75-16.45,4.56-5.29,9.58-10.14,15.07-14.57,8.46-6.74,17.94-12.77,28.45-18.09,10.51-5.32,20.29-9.38,29.34-12.19,9.05-2.81,15.73-4.21,20.02-4.21,2.51,0,4.51.61,6,1.83,1.49,1.22,2.54,2.87,3.17,4.96.63,2.08.94,4.28.94,6.59,0,2.12-.66,4.23-1.98,6.34-1.92,2.84-5.29,5.83-10.11,8.97-4.82,3.14-9.68,5.92-14.57,8.33-4.89,2.41-7.7,3.62-8.43,3.62-.4,0-.59-.13-.59-.4,0-.59.76-1.55,2.28-2.88,1.52-1.32,3.2-2.68,5.05-4.06,4.1-3.11,6.51-6.41,7.24-9.91-6.41,1.78-12.79,4.13-19.13,7.04-6.34,2.91-12.62,6.38-18.83,10.41-6.21,4.03-12.42,8.62-18.63,13.78-7.01,5.88-12.97,12.01-17.89,18.39-4.92,6.38-8.66,12.28-11.2,17.69-2.54,5.42-3.82,9.58-3.82,12.49,0,2.18.69,4.08,2.08,5.7,1.39,1.62,3.27,2.43,5.65,2.43,2.78,0,6.21-1.22,10.31-3.67,4.43-2.64,9.3-6.03,14.62-10.16,5.32-4.13,10.22-8.04,14.72-11.75,4.49-3.7,9.35-7.76,14.57-12.19,4.82-4.03,8.57-7.29,11.25-9.76,2.68-2.48,4.67-4.64,6-6.49,2.78-3.83,5.53-6.05,8.28-6.64,2.74-.6,5.09-.05,7.04,1.63,1.95,1.69,2.92,3.75,2.92,6.2,0,.79-1.44,3.88-4.31,9.27-2.88,5.39-7.27,13.18-13.18,23.39-5.91,10.21-13.2,22.25-21.86,36.13,7.67-4.1,19.92-12.32,36.77-24.68Z"/>
      <path class="cls-2" d="m326.55,259.04v-5.71c3.16-3.75,5.57-6.94,7.21-9.58-1.88-.64-3.24-1.44-4.09-2.37-.85-.94-1.27-2.34-1.27-4.22,0-2.11.88-4.78,2.64-8,1.76-3.22,3.92-6.24,6.5-9.05,2.58-2.81,4.92-4.63,7.03-5.45.82-.41,1.61-.62,2.37-.62,1.17,0,1.76.56,1.76,1.67,0,1-.91,3.02-2.72,6.06,12.07-1.88,19.69-2.81,22.85-2.81,1.23,0,2.08.12,2.55.35,1,.53,1.82,1.76,2.46,3.69.64,1.93.97,3.87.97,5.8,0,1.23-.54,2.56-1.63,4-1.08,1.44-2.94,3.53-5.58,6.28-3.11,3.34-5.71,6.97-7.82,10.9-2.11,3.93-3.16,6.89-3.16,8.88,0,2.75,1.7,4.13,5.1,4.13,3.57,0,9.79-3.63,18.63-10.9v5.89c-4.86,5.1-8.88,9.11-12.04,12.04-3.16,2.93-6.09,5.26-8.79,6.99-2.7,1.73-5.1,2.59-7.21,2.59-2.46,0-4.51-1.13-6.15-3.38-1.64-2.25-2.46-5.52-2.46-9.8,0-2.52.64-5.39,1.93-8.61,1.29-3.22,3.18-6.72,5.67-10.5,2.49-3.78,5.29-7.54,8.39-11.29-1.64.35-3.49.72-5.54,1.1-2.05.38-4.22.78-6.5,1.19-2.29.41-4.04.73-5.27.97-3.63,7.27-8.91,13.86-15.82,19.78Z"/>
      <path class="cls-2" d="m436.5,252.1v5.89c-3.87,3.52-6.97,5.86-9.32,7.03-2.34,1.17-5.71,1.64-10.11,1.41-7.62,9.02-14.33,13.54-20.13,13.54-3.28,0-6.27-1.08-8.96-3.25-2.7-2.17-4.85-5.13-6.46-8.88-1.61-3.75-2.42-7.94-2.42-12.57,0-3.75,1.24-7.91,3.74-12.48,2.49-4.57,5.71-8.83,9.67-12.79s8.19-7.15,12.7-9.58c4.51-2.43,8.7-3.65,12.57-3.65,2.75,0,4.92.43,6.5,1.27,1.58.85,2.37,2.04,2.37,3.56,0,1.17-.67,2.52-2.02,4.04,2.23.47,3.75,1.25,4.57,2.33.82,1.08,1.23,3.06,1.23,5.93s-.66,6.36-1.98,10.63c-1.32,4.28-3.12,8.29-5.41,12.04l1.58,1.58h1.32c1,0,1.98-.25,2.94-.75.97-.5,1.83-1.02,2.59-1.58.76-.56,2.43-1.8,5.01-3.74Zm-18.11-23.12c-4.86,2.93-9.02,5.58-12.48,7.95-3.46,2.37-6.39,4.78-8.79,7.21-2.4,2.43-4.01,4.88-4.83,7.34-1.46,6.56-2.2,10.11-2.2,10.63,0,3.87,2.69,5.8,8.09,5.8,2.52,0,6.74-2.17,12.66-6.5-1-2.75-1.49-5.39-1.49-7.91,0-3.69.76-7.46,2.29-11.29,1.52-3.84,3.78-8.25,6.77-13.23Z"/>
      <path class="cls-2" d="m492.84,252.1v5.89c-3.87,3.52-6.97,5.86-9.32,7.03-2.34,1.17-5.71,1.64-10.11,1.41-7.62,9.02-14.33,13.54-20.13,13.54-3.28,0-6.27-1.08-8.96-3.25-2.7-2.17-4.85-5.13-6.46-8.88-1.61-3.75-2.42-7.94-2.42-12.57,0-3.75,1.24-7.91,3.74-12.48,2.49-4.57,5.71-8.83,9.67-12.79s8.19-7.15,12.7-9.58c4.51-2.43,8.7-3.65,12.57-3.65,2.75,0,4.92.43,6.5,1.27,1.58.85,2.37,2.04,2.37,3.56,0,1.17-.67,2.52-2.02,4.04,2.23.47,3.75,1.25,4.57,2.33.82,1.08,1.23,3.06,1.23,5.93s-.66,6.36-1.98,10.63c-1.32,4.28-3.12,8.29-5.41,12.04l1.58,1.58h1.32c1,0,1.98-.25,2.94-.75.97-.5,1.83-1.02,2.59-1.58.76-.56,2.43-1.8,5.01-3.74Zm-18.11-23.12c-4.86,2.93-9.02,5.58-12.48,7.95-3.46,2.37-6.39,4.78-8.79,7.21-2.4,2.43-4.01,4.88-4.83,7.34-1.46,6.56-2.2,10.11-2.2,10.63,0,3.87,2.69,5.8,8.09,5.8,2.52,0,6.74-2.17,12.66-6.5-1-2.75-1.49-5.39-1.49-7.91,0-3.69.76-7.46,2.29-11.29,1.52-3.84,3.78-8.25,6.77-13.23Z"/>
      <path class="cls-2" d="m504.17,252.45l-1.58,7.38c-.23.94-.35,1.99-.35,3.16,0,3.16,1.32,4.75,3.96,4.75s8.64-4.92,18.37-14.77c.06-3.81,1.48-8.2,4.26-13.18,2.78-4.98,5.86-9.35,9.23-13.1,3.37-3.75,5.87-5.62,7.51-5.62,2.58,0,3.87,1.7,3.87,5.1,0,2.05-.5,4.56-1.49,7.51-1,2.96-2.46,6.15-4.39,9.58s-4.31,6.96-7.12,10.59c1.46,2.64,2.96,3.96,4.48,3.96,1.29,0,2.71-.45,4.26-1.36,1.55-.91,3.5-2.3,5.84-4.17v5.89c-3.28,2.58-5.88,4.34-7.78,5.27-1.9.94-4.35,1.41-7.34,1.41-1.17,0-3.28-.79-6.33-2.37-5.98,6.33-10.84,11.06-14.59,14.19-3.75,3.13-6.8,4.7-9.14,4.7-4.04,0-7.49-2.42-10.33-7.25-2.84-4.83-4.26-10.15-4.26-15.95,0-7.79,4.39-17.14,13.18-28.04,2.64-3.28,4.76-5.52,6.37-6.72,1.61-1.2,3.44-1.8,5.49-1.8,1.76,0,3.43.32,5.01.97,1.58.65,2.37,1.41,2.37,2.29,0,2.93-1.96,7.22-5.89,12.88-3.93,5.66-8.47,10.56-13.62,14.72Z"/>
      <path class="cls-2" d="m564.91,255.44v2.2c0,3.46.85,6.15,2.55,8.09,1.7,1.93,3.92,2.9,6.68,2.9s5.84-.67,8.92-2.02c3.08-1.35,6.14-3.13,9.18-5.36,3.05-2.23,6.77-5.21,11.16-8.96v5.36c-6.62,7.97-12.83,14.08-18.63,18.33s-11.69,6.37-17.67,6.37c-5.22,0-9.35-2.02-12.39-6.06-3.05-4.04-4.57-9.58-4.57-16.61,0-6.15,1.44-11.73,4.31-16.74,2.87-5.01,7.56-10.3,14.06-15.86,4.45-3.81,8.88-6.68,13.27-8.61s8.32-2.9,11.78-2.9c2.75,0,4.94.63,6.55,1.89,1.61,1.26,2.42,3.15,2.42,5.67,0,3.69-1.38,7.37-4.13,11.03-2.75,3.66-6.96,7.29-12.61,10.9-5.66,3.6-12.61,7.08-20.87,10.42Zm.88-5.71c5.27-2.05,9.79-4.6,13.54-7.65,3.75-3.05,6.52-5.96,8.31-8.75,1.79-2.78,2.68-4.82,2.68-6.11s-.62-2.02-1.85-2.02c-1.05,0-2.77.67-5.14,2.02-2.37,1.35-4.78,3.11-7.21,5.27-2.43,2.17-4.61,4.72-6.55,7.65-1.93,2.93-3.19,6.12-3.78,9.58Z"/>
    </g>
  </g>
  <path class="cls-4" d="m405.84,78.39c-26.15-79.91,72.18-112.08,98.33-32.17,81.92-26.81,114.1,71.52,32.17,98.33l-98.33,32.17-32.17-98.33Z"/>
  <path class="cls-1" d="m178.17,268.28c26.15-79.91-72.18-112.08-98.33-32.17-81.92-26.81-114.1,71.52-32.17,98.33l98.33,32.17,32.17-98.33Z"/>
</svg>